<svg xmlns="http://www.w3.org/2000/svg" xmlns:xlink="http://www.w3.org/1999/xlink" width="144" zoomAndPan="magnify" viewBox="0 0 108 107.999999" height="144" preserveAspectRatio="xMidYMid meet" version="1.0"><defs><clipPath id="dc540414f6"><path d="M 27.011719 20.4375 L 78.011719 20.4375 L 78.011719 78.9375 L 27.011719 78.9375 Z M 27.011719 20.4375 " clip-rule="nonzero"/></clipPath></defs><g clip-path="url(#dc540414f6)"><path fill="#ffffff" d="M 76.785156 34.226562 L 53.730469 20.894531 C 53.351562 20.671875 52.941406 20.5625 52.503906 20.5625 C 52.066406 20.5625 51.65625 20.671875 51.277344 20.894531 L 28.234375 34.226562 C 27.855469 34.445312 27.554688 34.75 27.335938 35.128906 C 27.117188 35.511719 27.007812 35.925781 27.007812 36.363281 L 27.007812 63.039062 C 27.011719 63.476562 27.121094 63.886719 27.339844 64.265625 C 27.558594 64.644531 27.855469 64.945312 28.234375 65.164062 L 51.277344 78.496094 C 51.65625 78.71875 52.066406 78.828125 52.503906 78.828125 C 52.941406 78.828125 53.351562 78.71875 53.730469 78.496094 L 76.785156 65.164062 C 77.164062 64.945312 77.460938 64.644531 77.683594 64.265625 C 77.902344 63.886719 78.011719 63.476562 78.011719 63.039062 L 78.011719 36.363281 C 78.011719 35.925781 77.902344 35.511719 77.683594 35.128906 C 77.464844 34.75 77.164062 34.445312 76.785156 34.226562 Z M 43.386719 65.769531 C 43.390625 65.988281 43.351562 66.203125 43.277344 66.410156 C 43.203125 66.621094 43.09375 66.808594 42.949219 66.976562 C 42.804688 67.144531 42.636719 67.28125 42.445312 67.390625 C 42.253906 67.496094 42.046875 67.566406 41.828125 67.601562 C 41.734375 67.609375 41.640625 67.617188 41.546875 67.613281 C 41.144531 67.613281 40.785156 67.492188 40.460938 67.253906 C 40.136719 67.015625 39.914062 66.707031 39.792969 66.320312 L 34.984375 50.703125 L 34.984375 60.898438 C 34.984375 61.144531 34.9375 61.378906 34.84375 61.605469 C 34.75 61.832031 34.617188 62.03125 34.445312 62.203125 C 34.273438 62.375 34.074219 62.507812 33.847656 62.601562 C 33.621094 62.695312 33.386719 62.742188 33.144531 62.742188 C 32.898438 62.742188 32.664062 62.695312 32.441406 62.601562 C 32.214844 62.507812 32.015625 62.375 31.84375 62.203125 C 31.667969 62.03125 31.535156 61.832031 31.445312 61.605469 C 31.351562 61.378906 31.304688 61.144531 31.304688 60.898438 L 31.304688 38.492188 C 31.300781 38.273438 31.339844 38.058594 31.414062 37.847656 C 31.492188 37.640625 31.597656 37.453125 31.742188 37.285156 C 31.886719 37.117188 32.054688 36.980469 32.246094 36.871094 C 32.4375 36.765625 32.644531 36.695312 32.863281 36.660156 C 33.082031 36.625 33.296875 36.632812 33.511719 36.675781 C 33.730469 36.722656 33.929688 36.800781 34.117188 36.917969 C 34.304688 37.039062 34.464844 37.183594 34.597656 37.359375 C 34.734375 37.535156 34.832031 37.726562 34.898438 37.9375 L 39.707031 53.558594 L 39.707031 33.621094 C 39.707031 33.378906 39.753906 33.144531 39.847656 32.917969 C 39.941406 32.691406 40.074219 32.492188 40.246094 32.320312 C 40.417969 32.144531 40.617188 32.011719 40.84375 31.917969 C 41.070312 31.824219 41.304688 31.777344 41.546875 31.777344 C 41.792969 31.777344 42.027344 31.824219 42.253906 31.917969 C 42.476562 32.011719 42.675781 32.144531 42.847656 32.320312 C 43.023438 32.492188 43.15625 32.691406 43.246094 32.917969 C 43.339844 33.144531 43.386719 33.378906 43.386719 33.621094 Z M 57.941406 51.539062 L 49.523438 51.539062 L 49.523438 69.320312 C 49.523438 69.566406 49.476562 69.800781 49.382812 70.027344 C 49.289062 70.253906 49.15625 70.453125 48.984375 70.625 C 48.8125 70.800781 48.613281 70.933594 48.386719 71.027344 C 48.160156 71.121094 47.925781 71.167969 47.683594 71.167969 C 47.4375 71.167969 47.203125 71.121094 46.976562 71.027344 C 46.753906 70.933594 46.554688 70.800781 46.382812 70.625 C 46.207031 70.453125 46.074219 70.253906 45.980469 70.027344 C 45.886719 69.800781 45.84375 69.566406 45.84375 69.320312 L 45.84375 30.070312 C 45.84375 29.738281 45.925781 29.433594 46.089844 29.148438 C 46.253906 28.863281 46.480469 28.636719 46.761719 28.46875 L 51.585938 25.691406 C 51.867188 25.523438 52.175781 25.441406 52.503906 25.441406 C 52.832031 25.441406 53.140625 25.523438 53.425781 25.691406 L 58.859375 28.828125 C 59.070312 28.949219 59.253906 29.105469 59.402344 29.300781 C 59.550781 29.496094 59.65625 29.710938 59.722656 29.949219 C 59.785156 30.183594 59.800781 30.425781 59.769531 30.667969 C 59.738281 30.910156 59.660156 31.136719 59.539062 31.351562 C 59.414062 31.5625 59.257812 31.742188 59.0625 31.890625 C 58.871094 32.039062 58.65625 32.148438 58.417969 32.210938 C 58.183594 32.273438 57.941406 32.289062 57.699219 32.257812 C 57.457031 32.222656 57.230469 32.148438 57.019531 32.023438 L 52.503906 29.417969 L 49.523438 31.140625 L 49.523438 47.851562 L 57.941406 47.851562 C 58.183594 47.851562 58.417969 47.898438 58.644531 47.992188 C 58.871094 48.085938 59.066406 48.21875 59.242188 48.390625 C 59.414062 48.5625 59.546875 48.761719 59.640625 48.988281 C 59.734375 49.214844 59.78125 49.449219 59.78125 49.695312 C 59.78125 49.941406 59.734375 50.175781 59.640625 50.402344 C 59.546875 50.628906 59.414062 50.828125 59.242188 51 C 59.066406 51.171875 58.871094 51.304688 58.644531 51.398438 C 58.417969 51.492188 58.183594 51.539062 57.941406 51.539062 Z M 73.472656 39.414062 C 73.347656 39.625 73.191406 39.808594 72.996094 39.957031 C 72.804688 40.105469 72.589844 40.210938 72.355469 40.273438 C 72.117188 40.335938 71.878906 40.351562 71.636719 40.320312 C 71.394531 40.289062 71.167969 40.214844 70.957031 40.089844 L 68.894531 38.898438 L 68.894531 63.691406 C 68.894531 63.933594 68.847656 64.167969 68.753906 64.394531 C 68.660156 64.621094 68.527344 64.820312 68.355469 64.996094 C 68.183594 65.167969 67.984375 65.300781 67.757812 65.394531 C 67.535156 65.488281 67.300781 65.535156 67.054688 65.535156 C 66.8125 65.535156 66.578125 65.488281 66.351562 65.394531 C 66.125 65.300781 65.925781 65.167969 65.753906 64.996094 C 65.582031 64.820312 65.449219 64.621094 65.355469 64.394531 C 65.261719 64.167969 65.214844 63.933594 65.214844 63.691406 L 65.214844 36.769531 L 61.3125 34.507812 C 61.101562 34.386719 60.921875 34.226562 60.773438 34.035156 C 60.625 33.839844 60.519531 33.625 60.453125 33.386719 C 60.390625 33.152344 60.375 32.910156 60.40625 32.667969 C 60.4375 32.425781 60.515625 32.199219 60.636719 31.988281 C 60.761719 31.773438 60.917969 31.59375 61.113281 31.445312 C 61.304688 31.296875 61.519531 31.191406 61.757812 31.125 C 61.992188 31.0625 62.230469 31.046875 62.472656 31.078125 C 62.714844 31.109375 62.941406 31.1875 63.152344 31.3125 L 72.796875 36.894531 C 73.007812 37.015625 73.1875 37.175781 73.335938 37.371094 C 73.480469 37.5625 73.585938 37.78125 73.652344 38.015625 C 73.714844 38.25 73.730469 38.492188 73.699219 38.734375 C 73.667969 38.976562 73.59375 39.203125 73.472656 39.414062 Z M 73.472656 39.414062 " fill-opacity="1" fill-rule="nonzero"/></g></svg>