<svg xmlns="http://www.w3.org/2000/svg" xmlns:xlink="http://www.w3.org/1999/xlink" width="144" zoomAndPan="magnify" viewBox="0 0 108 107.999999" height="144" preserveAspectRatio="xMidYMid meet" version="1.0"><defs><clipPath id="da066ae8b3"><path d="M 31 34 L 77.871094 34 L 77.871094 68.660156 L 31 68.660156 Z M 31 34 " clip-rule="nonzero"/></clipPath><clipPath id="dac74397fe"><path d="M 48 61.675781 L 56 61.675781 L 56 68.660156 L 48 68.660156 Z M 48 61.675781 " clip-rule="nonzero"/></clipPath><clipPath id="52d665996d"><path d="M 20.027344 25.910156 L 42 25.910156 L 42 53 L 20.027344 53 Z M 20.027344 25.910156 " clip-rule="nonzero"/></clipPath></defs><path fill="#ffffff" d="M 51.347656 40.121094 C 54.898438 41.132812 58.707031 40.671875 61.917969 38.851562 L 77.835938 51.835938 C 78.167969 52.101562 78.453125 52.4375 78.664062 52.800781 L 83.1875 48.636719 L 74.507812 34.671875 L 69.308594 36.582031 L 62.5 34.140625 C 61.074219 33.628906 59.5 33.839844 58.253906 34.699219 C 56.097656 36.195312 53.75 37.40625 51.289062 38.292969 C 50.792969 38.476562 50.53125 39.023438 50.710938 39.523438 C 50.816406 39.816406 51.050781 40.039062 51.347656 40.121094 " fill-opacity="1" fill-rule="nonzero"/><g clip-path="url(#da066ae8b3)"><path fill="#ffffff" d="M 52.679688 60.445312 C 52.921875 58.382812 51.453125 56.519531 49.402344 56.28125 C 49.148438 56.246094 48.890625 56.246094 48.640625 56.273438 C 49.128906 54.257812 47.910156 52.222656 45.902344 51.71875 C 44.757812 51.429688 43.539062 51.710938 42.625 52.46875 L 42.375 52.675781 C 42.355469 50.597656 40.660156 48.9375 38.59375 48.960938 C 37.738281 48.96875 36.917969 49.277344 36.253906 49.820312 L 33.863281 51.808594 L 31.679688 50.199219 L 40.785156 35.136719 C 43.785156 35.210938 46.785156 35.109375 49.773438 34.839844 C 51.890625 34.171875 54.128906 33.988281 56.328125 34.300781 C 54.59375 35.382812 52.738281 36.28125 50.816406 36.980469 C 49.59375 37.417969 48.964844 38.769531 49.402344 39.996094 C 49.660156 40.714844 50.242188 41.257812 50.96875 41.464844 C 54.558594 42.488281 58.394531 42.148438 61.75 40.511719 L 76.964844 52.921875 C 77.917969 53.699219 78.054688 55.109375 77.28125 56.066406 C 76.539062 56.988281 75.214844 57.160156 74.261719 56.480469 L 62.878906 48.265625 C 62.566406 48.039062 62.136719 48.117188 61.910156 48.429688 C 61.691406 48.742188 61.765625 49.167969 62.070312 49.394531 L 73.050781 57.324219 C 74.101562 58.089844 74.335938 59.566406 73.578125 60.617188 C 72.824219 61.671875 71.359375 61.910156 70.3125 61.15625 L 59.945312 53.671875 C 59.625 53.453125 59.1875 53.539062 58.976562 53.851562 C 58.765625 54.164062 58.835938 54.585938 59.136719 54.804688 L 68.28125 61.410156 C 69.335938 62.167969 69.574219 63.644531 68.816406 64.703125 C 68.0625 65.761719 66.59375 66 65.539062 65.242188 L 56.9375 59.035156 C 56.625 58.808594 56.1875 58.890625 55.96875 59.203125 C 55.75 59.515625 55.816406 59.941406 56.121094 60.167969 L 62.710938 64.921875 C 63.640625 65.601562 63.851562 66.914062 63.175781 67.84375 C 62.5 68.777344 61.207031 68.988281 60.273438 68.324219 L 56.902344 65.882812 C 57.890625 64.066406 57.222656 61.785156 55.414062 60.785156 C 54.578125 60.328125 53.597656 60.207031 52.679688 60.445312 " fill-opacity="1" fill-rule="nonzero"/></g><path fill="#ffffff" d="M 37.359375 56.832031 L 40.128906 54.539062 C 41.128906 53.707031 41.261719 52.214844 40.433594 51.21875 C 39.605469 50.21875 38.140625 50.082031 37.144531 50.898438 L 34.375 53.199219 C 33.382812 54.046875 33.261719 55.53125 34.097656 56.519531 C 34.925781 57.5 36.367188 57.636719 37.359375 56.832031 " fill-opacity="1" fill-rule="nonzero"/><path fill="#ffffff" d="M 46.5 57.1875 C 47.492188 56.347656 47.621094 54.855469 46.785156 53.859375 C 45.964844 52.882812 44.507812 52.734375 43.511719 53.546875 L 38.5 57.703125 C 37.507812 58.535156 37.367188 60.027344 38.195312 61.023438 C 39.023438 62.023438 40.492188 62.164062 41.488281 61.34375 L 46.5 57.1875 " fill-opacity="1" fill-rule="nonzero"/><path fill="#ffffff" d="M 46.539062 65.082031 L 50.460938 61.828125 C 51.460938 61 51.59375 59.507812 50.765625 58.511719 C 49.9375 57.511719 48.46875 57.371094 47.472656 58.195312 L 43.554688 61.445312 C 42.554688 62.277344 42.421875 63.765625 43.25 64.765625 C 44.078125 65.761719 45.539062 65.902344 46.539062 65.082031 " fill-opacity="1" fill-rule="nonzero"/><g clip-path="url(#dac74397fe)"><path fill="#ffffff" d="M 52.121094 62.261719 L 49.527344 64.417969 C 48.53125 65.25 48.394531 66.738281 49.222656 67.738281 C 50.050781 68.734375 51.519531 68.875 52.511719 68.058594 L 55.117188 65.902344 C 56.109375 65.070312 56.25 63.578125 55.421875 62.582031 C 54.59375 61.582031 53.121094 61.445312 52.121094 62.261719 " fill-opacity="1" fill-rule="nonzero"/></g><g clip-path="url(#52d665996d)"><path fill="#ffffff" d="M 41.652344 31.019531 L 28.601562 52.601562 L 20.230469 47.492188 L 33.28125 25.910156 L 41.652344 31.019531 " fill-opacity="1" fill-rule="nonzero"/></g><path fill="#ffffff" d="M 82.453125 26.234375 L 94.824219 46.136719 L 86.511719 51.34375 L 74.140625 31.453125 L 82.453125 26.234375 " fill-opacity="1" fill-rule="nonzero"/></svg>