<svg xmlns="http://www.w3.org/2000/svg" xmlns:xlink="http://www.w3.org/1999/xlink" width="144" zoomAndPan="magnify" viewBox="0 0 108 107.999999" height="144" preserveAspectRatio="xMidYMid meet" version="1.0"><defs><clipPath id="86a9a57df4"><path d="M 27.964844 24.652344 L 67 24.652344 L 67 77.902344 L 27.964844 77.902344 Z M 27.964844 24.652344 " clip-rule="nonzero"/></clipPath><clipPath id="7baf95a236"><path d="M 56 24.652344 L 67 24.652344 L 67 36 L 56 36 Z M 56 24.652344 " clip-rule="nonzero"/></clipPath><clipPath id="3a8eff295f"><path d="M 70 37 L 79.714844 37 L 79.714844 54 L 70 54 Z M 70 37 " clip-rule="nonzero"/></clipPath><clipPath id="945203c7c5"><path d="M 72 27 L 79.714844 27 L 79.714844 35 L 72 35 Z M 72 27 " clip-rule="nonzero"/></clipPath></defs><g clip-path="url(#86a9a57df4)"><path fill="#ffffff" d="M 61.863281 77.910156 L 32.238281 77.910156 C 29.867188 77.910156 27.9375 75.957031 27.9375 73.554688 L 27.9375 29.117188 C 27.9375 26.714844 29.867188 24.761719 32.238281 24.761719 L 56.855469 24.761719 C 57.324219 24.761719 57.703125 25.148438 57.703125 25.621094 C 57.703125 26.097656 57.324219 26.480469 56.855469 26.480469 L 32.238281 26.480469 C 30.804688 26.480469 29.636719 27.664062 29.636719 29.117188 L 29.636719 73.554688 C 29.636719 75.007812 30.804688 76.191406 32.238281 76.191406 L 61.863281 76.191406 C 63.296875 76.191406 64.464844 75.007812 64.464844 73.554688 L 64.464844 54.324219 C 64.464844 53.851562 64.84375 53.464844 65.3125 53.464844 C 65.78125 53.464844 66.164062 53.851562 66.164062 54.324219 L 66.164062 73.554688 C 66.164062 75.957031 64.234375 77.910156 61.863281 77.910156 Z M 65.316406 43.234375 C 64.847656 43.234375 64.464844 42.851562 64.464844 42.378906 L 64.464844 34.503906 C 64.464844 34.03125 64.847656 33.644531 65.316406 33.644531 C 65.78125 33.644531 66.164062 34.03125 66.164062 34.503906 L 66.164062 42.378906 C 66.164062 42.851562 65.78125 43.234375 65.316406 43.234375 Z M 65.316406 43.234375 " fill-opacity="1" fill-rule="nonzero"/></g><g clip-path="url(#7baf95a236)"><path fill="#ffffff" d="M 65.316406 35.363281 L 60.308594 35.363281 C 57.9375 35.363281 56.007812 33.410156 56.007812 31.007812 L 56.007812 25.621094 C 56.007812 25.273438 56.21875 24.957031 56.539062 24.828125 C 56.855469 24.695312 57.226562 24.773438 57.464844 25.027344 L 65.925781 33.910156 C 66.164062 34.15625 66.226562 34.523438 66.097656 34.839844 C 65.964844 35.15625 65.65625 35.363281 65.316406 35.363281 Z M 57.703125 27.75 L 57.703125 31.007812 C 57.703125 32.460938 58.871094 33.644531 60.308594 33.644531 L 63.316406 33.644531 Z M 57.703125 27.75 " fill-opacity="1" fill-rule="nonzero"/></g><path fill="#ffffff" d="M 53.257812 68.796875 C 53.101562 68.796875 52.945312 68.753906 52.808594 68.667969 C 52.515625 68.484375 52.363281 68.140625 52.417969 67.796875 L 53.761719 59.621094 C 53.78125 59.507812 53.820312 59.402344 53.878906 59.304688 L 70.957031 31.601562 C 71.59375 30.570312 72.972656 30.175781 73.90625 30.761719 L 77.140625 32.804688 C 78.109375 33.421875 78.355469 34.792969 77.699219 35.863281 L 60.617188 63.5625 C 60.558594 63.660156 60.484375 63.742188 60.394531 63.804688 L 53.75 68.636719 C 53.605469 68.742188 53.429688 68.796875 53.257812 68.796875 Z M 55.40625 60.070312 L 54.429688 66.027344 L 59.269531 62.507812 L 76.257812 34.953125 C 76.429688 34.675781 76.390625 34.359375 76.242188 34.261719 L 73.011719 32.222656 C 72.878906 32.136719 72.582031 32.214844 72.398438 32.511719 Z M 55.40625 60.070312 " fill-opacity="1" fill-rule="nonzero"/><g clip-path="url(#3a8eff295f)"><path fill="#ffffff" d="M 71.351562 53.011719 C 71.195312 53.011719 71.042969 52.972656 70.902344 52.882812 C 70.503906 52.632812 70.382812 52.101562 70.632812 51.699219 L 77.601562 40.390625 L 74.941406 38.714844 C 74.542969 38.460938 74.421875 37.933594 74.671875 37.53125 C 74.917969 37.128906 75.441406 37.003906 75.839844 37.257812 L 79.222656 39.390625 C 79.410156 39.507812 79.546875 39.703125 79.597656 39.921875 C 79.648438 40.144531 79.609375 40.378906 79.492188 40.570312 L 72.070312 52.609375 C 71.910156 52.871094 71.632812 53.011719 71.351562 53.011719 Z M 71.351562 53.011719 " fill-opacity="1" fill-rule="nonzero"/></g><g clip-path="url(#945203c7c5)"><path fill="#ffffff" d="M 76.691406 34.394531 C 76.539062 34.394531 76.382812 34.351562 76.246094 34.265625 L 73.011719 32.222656 C 72.820312 32.101562 72.683594 31.910156 72.632812 31.6875 C 72.582031 31.464844 72.621094 31.230469 72.742188 31.039062 L 74.519531 28.15625 C 74.769531 27.753906 75.292969 27.628906 75.6875 27.882812 L 78.921875 29.925781 C 79.113281 30.042969 79.25 30.238281 79.300781 30.460938 C 79.351562 30.683594 79.3125 30.914062 79.191406 31.109375 L 77.414062 33.992188 C 77.253906 34.25 76.976562 34.394531 76.691406 34.394531 Z M 74.628906 31.21875 L 76.421875 32.351562 L 77.304688 30.925781 L 75.511719 29.792969 Z M 74.628906 31.21875 " fill-opacity="1" fill-rule="nonzero"/></g><path fill="#ffffff" d="M 53.257812 68.796875 L 35.972656 68.796875 C 35.507812 68.796875 35.125 68.410156 35.125 67.9375 C 35.125 67.464844 35.507812 67.078125 35.972656 67.078125 L 53.257812 67.078125 C 53.722656 67.078125 54.105469 67.464844 54.105469 67.9375 C 54.105469 68.410156 53.722656 68.796875 53.257812 68.796875 Z M 53.257812 68.796875 " fill-opacity="1" fill-rule="nonzero"/><path fill="#ffffff" d="M 46.890625 39.085938 L 35.972656 39.085938 C 35.507812 39.085938 35.125 38.699219 35.125 38.226562 C 35.125 37.753906 35.507812 37.367188 35.972656 37.367188 L 46.890625 37.367188 C 47.359375 37.367188 47.738281 37.753906 47.738281 38.226562 C 47.738281 38.699219 47.359375 39.085938 46.890625 39.085938 Z M 46.890625 39.085938 " fill-opacity="1" fill-rule="nonzero"/><path fill="#ffffff" d="M 55.964844 46.511719 L 35.972656 46.511719 C 35.507812 46.511719 35.125 46.128906 35.125 45.65625 C 35.125 45.179688 35.507812 44.796875 35.972656 44.796875 L 55.964844 44.796875 C 56.433594 44.796875 56.8125 45.179688 56.8125 45.65625 C 56.8125 46.128906 56.433594 46.511719 55.964844 46.511719 Z M 55.964844 46.511719 " fill-opacity="1" fill-rule="nonzero"/><path fill="#ffffff" d="M 53.257812 53.941406 L 35.972656 53.941406 C 35.507812 53.941406 35.125 53.558594 35.125 53.082031 C 35.125 52.609375 35.507812 52.226562 35.972656 52.226562 L 53.257812 52.226562 C 53.722656 52.226562 54.105469 52.609375 54.105469 53.082031 C 54.105469 53.558594 53.722656 53.941406 53.257812 53.941406 Z M 53.257812 53.941406 " fill-opacity="1" fill-rule="nonzero"/><path fill="#ffffff" d="M 43.679688 61.367188 L 35.972656 61.367188 C 35.507812 61.367188 35.125 60.984375 35.125 60.507812 C 35.125 60.035156 35.507812 59.648438 35.972656 59.648438 L 43.679688 59.648438 C 44.148438 59.648438 44.527344 60.035156 44.527344 60.507812 C 44.527344 60.984375 44.148438 61.367188 43.679688 61.367188 Z M 43.679688 61.367188 " fill-opacity="1" fill-rule="nonzero"/><path fill="#ffffff" d="M 57.15625 39.085938 L 52.019531 39.085938 C 51.550781 39.085938 51.171875 38.699219 51.171875 38.226562 C 51.171875 37.753906 51.550781 37.367188 52.019531 37.367188 L 57.15625 37.367188 C 57.625 37.367188 58.007812 37.753906 58.007812 38.226562 C 58.007812 38.699219 57.625 39.085938 57.15625 39.085938 Z M 57.15625 39.085938 " fill-opacity="1" fill-rule="nonzero"/><path fill="#ffffff" d="M 54.476562 61.367188 L 47.714844 61.367188 C 47.246094 61.367188 46.867188 60.984375 46.867188 60.507812 C 46.867188 60.035156 47.246094 59.648438 47.714844 59.648438 L 54.476562 59.648438 C 54.945312 59.648438 55.324219 60.035156 55.324219 60.507812 C 55.324219 60.984375 54.945312 61.367188 54.476562 61.367188 Z M 54.476562 61.367188 " fill-opacity="1" fill-rule="nonzero"/></svg>