<svg width="767" height="186" viewBox="0 0 767 186" fill="none" xmlns="http://www.w3.org/2000/svg">
<path d="M295.443 72.6835C303.301 74.6812 309.361 78.5435 313.622 84.2703C317.884 89.9971 320.015 97.5218 320.015 106.845C320.015 118.964 316.353 128.553 309.028 135.612C301.703 142.537 291.647 146 278.862 146H229.318V9.75513H274.267C286.387 9.75513 295.909 12.9515 302.835 19.3442C309.76 25.6038 313.223 33.9942 313.223 44.5155C313.223 51.3078 311.691 57.1678 308.628 62.0955C305.565 66.8901 301.17 70.4194 295.443 72.6835ZM244.301 67.8889H276.065C290.316 67.8889 297.441 60.0978 297.441 44.5155C297.441 37.4569 295.376 31.9965 291.248 28.1342C287.119 24.2719 281.392 22.3408 274.067 22.3408H244.301V67.8889ZM276.864 133.614C285.388 133.614 292.047 131.217 296.841 126.422C301.769 121.628 304.233 115.102 304.233 106.845C304.233 98.5873 301.769 92.128 296.841 87.4666C292.047 82.6721 285.388 80.2748 276.864 80.2748H244.301V133.614H276.864Z" fill="white"/>
<path d="M387.182 49.3101C396.105 49.3101 404.096 51.441 411.155 55.7028C418.214 59.9646 423.741 65.8912 427.736 73.4825C431.732 81.0739 433.729 89.7307 433.729 99.453C433.729 109.042 431.732 117.632 427.736 125.224C423.874 132.682 418.413 138.542 411.355 142.804C404.429 147.065 396.505 149.196 387.582 149.196C380.79 149.196 374.53 147.731 368.803 144.801C363.21 141.738 358.482 137.476 354.619 132.016V185.954H341.035V52.5064H354.619V66.2907C358.482 60.9635 363.21 56.8348 368.803 53.9048C374.397 50.8417 380.523 49.3101 387.182 49.3101ZM387.582 136.81C393.841 136.81 399.435 135.212 404.363 132.016C409.29 128.82 413.153 124.425 415.95 118.831C418.746 113.104 420.145 106.645 420.145 99.453C420.145 92.128 418.746 85.6021 415.95 79.8753C413.153 74.1485 409.29 69.6869 404.363 66.4905C399.435 63.2942 393.841 61.696 387.582 61.696C381.189 61.696 375.462 63.2942 370.401 66.4905C365.474 69.6869 361.611 74.1485 358.815 79.8753C356.018 85.6021 354.619 92.0614 354.619 99.2532C354.619 106.445 356.018 112.904 358.815 118.631C361.611 124.358 365.474 128.82 370.401 132.016C375.462 135.212 381.189 136.81 387.582 136.81Z" fill="white"/>
<path d="M498.765 49.3101C501.961 49.3101 505.024 49.7762 507.954 50.7085V63.0944C505.157 61.7626 502.094 61.0967 498.765 61.0967C493.038 61.0967 487.711 62.6948 482.783 65.8912C477.855 69.0876 473.86 73.7489 470.796 79.8753C467.866 85.8684 466.401 92.9937 466.401 101.251V146H452.817V52.5064H466.401V71.285C469.997 64.3596 474.526 58.9658 479.986 55.1035C485.58 51.2412 491.839 49.3101 498.765 49.3101Z" fill="white"/>
<path d="M559.316 149.196C550.393 149.196 542.402 147.065 535.343 142.804C528.285 138.542 522.758 132.615 518.762 125.024C514.767 117.299 512.769 108.643 512.769 99.0534C512.769 89.4643 514.7 80.9407 518.562 73.4825C522.558 65.8912 528.018 59.9646 534.944 55.7028C542.002 51.441 549.993 49.3101 558.916 49.3101C567.84 49.3101 575.83 51.441 582.889 55.7028C589.948 59.9646 595.475 65.8912 599.47 73.4825C603.466 81.0739 605.463 89.6641 605.463 99.2532C605.463 108.842 603.466 117.432 599.47 125.024C595.608 132.615 590.147 138.542 583.089 142.804C576.163 147.065 568.239 149.196 559.316 149.196ZM558.916 136.81C565.309 136.81 570.969 135.212 575.897 132.016C580.958 128.82 584.887 124.358 587.684 118.631C590.48 112.904 591.879 106.445 591.879 99.2532C591.879 92.0614 590.48 85.6021 587.684 79.8753C584.887 74.1485 580.958 69.6869 575.897 66.4905C570.969 63.2942 565.309 61.696 558.916 61.696C552.657 61.696 547.063 63.2942 542.135 66.4905C537.208 69.6869 533.346 74.1485 530.549 79.8753C527.752 85.4689 526.353 91.8616 526.353 99.0534C526.353 106.378 527.752 112.904 530.549 118.631C533.346 124.358 537.208 128.82 542.135 132.016C547.063 135.212 552.657 136.81 558.916 136.81Z" fill="white"/>
<path d="M629.686 146V64.8923H613.704V52.5064H629.686V21.5417H643.27V52.5064H664.846V64.8923H643.27V146H629.686Z" fill="white"/>
<path d="M720.461 149.196C711.537 149.196 703.546 147.065 696.488 142.804C689.429 138.542 683.902 132.615 679.907 125.024C675.911 117.299 673.914 108.643 673.914 99.0534C673.914 89.4643 675.845 80.9407 679.707 73.4825C683.702 65.8912 689.163 59.9646 696.088 55.7028C703.147 51.441 711.138 49.3101 720.061 49.3101C728.984 49.3101 736.975 51.441 744.034 55.7028C751.092 59.9646 756.619 65.8912 760.615 73.4825C764.61 81.0739 766.608 89.6641 766.608 99.2532C766.608 108.842 764.61 117.432 760.615 125.024C756.752 132.615 751.292 138.542 744.233 142.804C737.308 147.065 729.384 149.196 720.461 149.196ZM720.061 136.81C726.454 136.81 732.114 135.212 737.042 132.016C742.103 128.82 746.031 124.358 748.828 118.631C751.625 112.904 753.023 106.445 753.023 99.2532C753.023 92.0614 751.625 85.6021 748.828 79.8753C746.031 74.1485 742.103 69.6869 737.042 66.4905C732.114 63.2942 726.454 61.696 720.061 61.696C713.801 61.696 708.208 63.2942 703.28 66.4905C698.352 69.6869 694.49 74.1485 691.693 79.8753C688.896 85.4689 687.498 91.8616 687.498 99.0534C687.498 106.378 688.896 112.904 691.693 118.631C694.49 124.358 698.352 128.82 703.28 132.016C708.208 135.212 713.801 136.81 720.061 136.81Z" fill="white"/>
<path d="M3.62165 24.3344C-4.62917 14.8113 2.1355 0 14.7357 0H91.7018C106.011 0 119.605 6.25228 128.918 17.116L182.538 79.6691L109.792 126.776C103.395 130.918 94.9234 129.715 89.9329 123.955L3.62165 24.3344Z" fill="#4739FF"/>
<path d="M3.6197 135.016C-4.63113 144.539 2.13355 159.35 14.7338 159.35H91.6999C106.009 159.35 119.603 153.098 128.916 142.234L182.536 79.6808L137.68 50.6343C115.29 36.1356 85.6402 40.3473 68.1734 60.5075L3.6197 135.016Z" fill="#7B46FF"/>
<path fill-rule="evenodd" clip-rule="evenodd" d="M182.536 79.6786L137.996 108.892C115.484 123.658 85.5062 119.392 68.0061 98.9332L51.5361 79.6786L68.0061 60.4241C85.5062 39.9653 115.484 35.6998 137.996 50.4652L182.536 79.6786Z" fill="#22F4FF"/>
</svg>
