<?xml version="1.0" encoding="UTF-8"?>
<!-- Generated by Pixelmator Pro 2.3.8 -->
<svg width="183" height="160" viewBox="0 0 183 160" xmlns="http://www.w3.org/2000/svg" xmlns:xlink="http://www.w3.org/1999/xlink">
    <g id="Group">
        <path id="Path" fill="#4739ff" stroke="none" d="M 4.08527 24.334396 C -4.16555 14.811295 2.59912 0 15.1993 0 L 92.165497 0 C 106.473999 0 120.069 6.252274 129.380997 17.115997 L 183.001999 79.669098 L 110.255997 126.776001 C 103.858002 130.917999 95.387001 129.714996 90.3965 123.955002 L 4.08527 24.334396 Z"/>
        <path id="path1" fill="#7b46ff" stroke="none" d="M 4.08332 135.016006 C -4.1675 144.539001 2.59717 159.350006 15.1974 159.350006 L 92.163498 159.350006 C 106.472 159.350006 120.067001 153.098007 129.378998 142.233994 L 183 79.680801 L 138.143997 50.634308 C 115.753998 36.135605 86.103798 40.347305 68.637001 60.5075 L 4.08332 135.016006 Z"/>
        <path id="path2" fill="#22f4ff" fill-rule="evenodd" stroke="none" d="M 183 79.678596 L 138.460007 108.891998 C 115.947998 123.657997 85.970001 119.391998 68.470001 98.933197 L 52 79.678596 L 68.470001 60.424103 C 85.970001 39.965302 115.947998 35.699799 138.460007 50.465195 L 183 79.678596 Z"/>
    </g>
</svg>
